<?xml version="1.0" standalone="no"?>
<!DOCTYPE svg PUBLIC "-//W3C//DTD SVG 20010904//EN"
 "http://www.w3.org/TR/2001/REC-SVG-20010904/DTD/svg10.dtd">
<svg version="1.0" xmlns="http://www.w3.org/2000/svg"
 width="2048.000000pt" height="2048.000000pt" viewBox="0 0 2048.000000 2048.000000"
 preserveAspectRatio="xMidYMid meet">

<g transform="translate(0.000000,2048.000000) scale(0.100000,-0.100000)"
fill="#000000" stroke="none">
<path d="M10201 15394 c-41 -34 -144 -163 -199 -248 -178 -278 -285 -589 -337
-981 -22 -170 -38 -618 -31 -895 l6 -235 -39 98 c-21 53 -57 128 -79 165 -49
82 -133 172 -161 172 -49 0 -165 -161 -227 -315 -20 -47 -47 -129 -62 -183
l-27 -97 -2 -1918 -2 -1919 -225 -300 -226 -300 0 -363 c0 -314 2 -364 15
-375 13 -11 49 -5 206 34 104 26 196 49 203 52 10 4 16 -3 18 -23 3 -26 6 -28
56 -31 28 -2 52 -6 52 -9 0 -4 -30 -80 -66 -169 -54 -135 -63 -166 -54 -183
10 -21 18 -21 334 -21 357 0 355 0 342 60 -3 17 -33 92 -67 166 -36 78 -58
139 -53 144 5 5 34 10 64 12 l55 3 3 88 3 87 94 0 c52 0 95 -4 95 -9 0 -4 -25
-64 -56 -132 -65 -143 -64 -152 15 -157 28 -2 51 -7 51 -11 0 -4 -25 -63 -55
-131 -30 -68 -55 -131 -55 -141 0 -38 14 -39 455 -37 384 3 429 5 438 19 8 13
-3 48 -46 152 -31 74 -57 137 -57 140 0 3 15 3 34 0 42 -7 76 11 76 40 0 12
-25 76 -55 142 l-54 120 91 3 c50 1 97 1 105 -2 9 -4 13 -29 13 -90 0 -95 4
-100 71 -90 24 4 39 3 39 -4 0 -5 -27 -80 -60 -165 -33 -86 -60 -162 -60 -170
0 -35 22 -37 351 -35 l324 3 3 22 c2 13 -26 92 -62 178 -36 85 -66 160 -66
166 0 8 14 10 45 6 46 -7 75 8 87 43 3 10 49 2 194 -33 208 -51 219 -53 231
-34 4 6 6 174 4 372 l-3 360 -46 65 c-25 36 -126 172 -225 302 l-179 237 2
1883 c1 2030 3 1949 -50 2123 -12 39 -47 121 -77 184 -43 89 -69 127 -118 177
-34 35 -71 64 -82 64 -20 0 -71 -49 -114 -110 -43 -60 -70 -112 -109 -204
l-38 -89 -5 464 c-5 501 -11 570 -67 851 -76 378 -255 758 -454 964 -39 41
-76 74 -83 74 -6 0 -25 -12 -42 -26z m95 -116 c118 -131 253 -386 338 -637 31
-90 56 -168 56 -172 0 -5 -203 -9 -451 -9 l-451 0 7 33 c22 106 122 359 197
497 72 132 223 340 247 340 5 0 31 -24 57 -52z m240 -908 c4 -8 9 -366 11
-795 l4 -780 -47 80 c-83 141 -170 248 -230 286 l-35 21 -42 -33 c-103 -81
-231 -269 -343 -504 -27 -56 -33 -63 -31 -38 2 18 0 30 -5 27 -4 -3 -7 -26 -7
-52 1 -28 -12 -88 -31 -147 -18 -55 -43 -140 -56 -190 l-23 -90 5 825 c3 454
10 899 15 990 9 137 38 365 53 405 2 6 138 10 380 10 324 0 377 -2 382 -15z
m624 -1031 c56 -71 85 -122 125 -221 38 -95 86 -270 76 -278 -3 -3 -116 -4
-250 -2 l-243 3 7 46 c9 64 59 202 107 298 45 89 118 205 130 205 4 0 26 -23
48 -51z m-1723 -51 c72 -112 122 -223 157 -343 14 -49 26 -93 26 -97 0 -4
-114 -8 -254 -8 l-254 0 28 109 c16 59 41 137 55 172 50 118 142 259 170 259
7 0 40 -42 72 -92z m50 -525 l142 -6 -3 -121 c-2 -67 -4 -731 -5 -1476 l-2
-1355 -89 -120 c-136 -184 -403 -535 -407 -535 -2 0 -3 664 -3 1475 l0 1474
103 3 102 3 0 30 0 30 -104 5 -104 5 -1 150 c0 83 1 216 2 298 l2 147 113 0
c61 0 176 -3 254 -7z m1873 -294 l0 -299 -95 0 c-83 0 -96 -2 -105 -19 -13
-25 -13 -27 4 -44 12 -11 35 -13 105 -9 l91 5 0 -1479 c0 -906 -4 -1474 -9
-1469 -5 6 -54 69 -108 140 -207 272 -364 474 -373 480 -7 4 -10 542 -10 1498
l0 1492 250 1 250 2 0 -299z m-790 114 c26 -63 110 -298 110 -310 0 -1 -116
-4 -257 -5 l-258 -3 -3 -32 -3 -33 193 -2 c106 -1 227 -1 269 -1 l76 1 11 -36
c25 -83 62 -295 71 -407 7 -77 11 -774 11 -1947 l0 -1828 -225 0 -225 0 0 383
c-1 394 -10 509 -44 561 -33 51 -107 33 -126 -31 -20 -71 -30 -257 -30 -586
l0 -327 -222 2 -223 3 0 1425 c0 784 3 1648 6 1920 5 487 6 497 33 635 50 259
104 446 176 618 l33 77 297 0 297 0 33 -77z m-960 -4583 c-6 -4 -75 -22 -153
-40 -78 -18 -282 -66 -454 -106 -171 -41 -319 -74 -327 -74 -14 0 -16 35 -16
318 l0 317 353 467 c193 256 408 540 477 630 l125 164 3 -835 c1 -577 -1 -837
-8 -841z m1350 1544 c40 -54 99 -130 130 -169 66 -82 687 -904 711 -942 15
-22 17 -66 18 -343 l2 -318 -228 58 c-234 58 -578 141 -669 160 l-51 11 -6
241 c-4 133 -7 509 -7 837 1 470 3 593 13 580 7 -8 46 -60 87 -115z m-705
-711 c4 -16 10 -236 12 -490 l5 -463 -32 0 -33 0 6 458 c6 440 10 522 27 522
4 0 11 -12 15 -27z m-625 -970 l0 -68 -255 -1 c-140 0 -255 3 -255 7 0 4 80
26 178 49 97 23 209 50 247 60 39 10 73 19 78 19 4 1 7 -29 7 -66z m1398 27
c180 -40 335 -82 346 -92 6 -4 -108 -8 -252 -8 l-262 0 0 65 c0 55 3 65 18 65
9 0 77 -13 150 -30z m-898 -19 c0 -10 7 -35 15 -54 8 -20 15 -59 15 -87 l0
-50 -145 0 -145 0 52 105 53 105 77 0 c70 0 78 -2 78 -19z m130 -135 c0 -85
-14 -108 -24 -39 -10 78 -8 113 9 113 12 0 15 -15 15 -74z m825 -76 c41 -25
74 -76 107 -162 l26 -68 -174 0 c-163 0 -174 1 -164 18 5 9 23 53 41 97 56
145 49 135 93 135 21 0 53 -9 71 -20z m-1810 -57 c44 0 83 5 87 10 12 19 39
-21 64 -95 13 -39 24 -76 24 -82 0 -8 -55 -10 -176 -8 -135 2 -174 6 -166 15
5 7 18 37 30 67 30 83 45 112 51 101 3 -5 42 -8 86 -8z m873 -9 c25 -5 32 -13
37 -38 12 -60 16 -66 40 -66 26 0 65 42 65 70 0 10 6 20 14 23 9 4 17 -11 26
-50 6 -31 20 -80 31 -109 l18 -54 -249 0 -249 0 46 93 c25 50 49 102 54 115 8
20 15 22 73 22 35 0 77 -3 94 -6z"/>
<path d="M9831 14014 c0 -11 3 -14 6 -6 3 7 2 16 -1 19 -3 4 -6 -2 -5 -13z"/>
<path d="M10375 13510 c3 -5 8 -10 11 -10 2 0 4 5 4 10 0 6 -5 10 -11 10 -5 0
-7 -4 -4 -10z"/>
<path d="M10410 13411 c0 -6 5 -13 10 -16 6 -3 10 1 10 9 0 9 -4 16 -10 16 -5
0 -10 -4 -10 -9z"/>
<path d="M9813 13080 c0 -25 2 -35 4 -22 2 12 2 32 0 45 -2 12 -4 2 -4 -23z"/>
<path d="M9813 12900 c0 -41 2 -58 4 -37 2 20 2 54 0 75 -2 20 -4 3 -4 -38z"/>
<path d="M7735 6090 c-124 -20 -257 -92 -328 -179 -184 -224 -166 -552 42
-743 101 -92 222 -138 365 -138 160 0 291 47 388 138 l49 46 -68 68 c-37 37
-70 68 -74 68 -4 0 -29 -18 -55 -40 -104 -86 -245 -109 -355 -58 -158 73 -232
245 -180 418 19 60 31 81 79 130 49 51 67 61 131 80 54 17 87 21 127 17 69 -7
159 -48 206 -94 l37 -36 22 27 c12 15 41 50 65 78 24 29 44 55 44 59 0 4 -19
24 -42 44 -50 42 -145 90 -208 104 -68 15 -189 21 -245 11z"/>
<path d="M12733 6090 c-215 -39 -390 -199 -438 -401 -64 -274 80 -539 345
-630 89 -30 249 -37 344 -15 243 57 415 275 416 526 0 233 -166 443 -400 505
-72 19 -201 26 -267 15z m248 -222 c114 -53 182 -159 187 -293 3 -64 -1 -92
-19 -139 -84 -225 -387 -283 -552 -107 -62 66 -82 125 -82 241 0 113 18 162
85 228 75 74 150 103 256 99 49 -3 87 -11 125 -29z"/>
<path d="M4583 6075 c-110 -30 -174 -76 -218 -157 -27 -47 -30 -63 -30 -138 0
-75 3 -91 27 -131 52 -89 98 -115 318 -181 74 -22 151 -49 171 -58 78 -40 77
-130 -3 -171 -95 -48 -293 -5 -412 90 l-40 32 -53 -83 c-29 -46 -53 -86 -53
-90 0 -12 84 -66 146 -93 177 -79 388 -84 525 -14 63 32 126 95 146 147 26 68
24 185 -4 237 -47 88 -120 133 -314 191 -166 50 -207 69 -226 110 -14 28 -14
37 -3 65 16 38 76 69 135 69 83 0 234 -51 286 -96 20 -18 21 -16 78 87 l41 77
-22 14 c-143 93 -349 132 -495 93z"/>
<path d="M5453 6072 l-143 -3 0 -509 0 -509 110 -3 110 -3 0 158 0 157 98 0
c170 0 268 16 349 55 126 62 183 157 184 306 1 100 -20 164 -72 223 -100 113
-214 136 -636 128z m366 -203 c63 -13 115 -67 126 -128 11 -64 -25 -128 -90
-161 -44 -22 -64 -25 -187 -28 l-138 -4 0 166 0 166 120 0 c65 0 142 -5 169
-11z"/>
<path d="M6575 6046 c-8 -18 -64 -143 -126 -277 -61 -134 -135 -300 -164 -369
-29 -69 -73 -172 -99 -229 -25 -57 -46 -107 -46 -112 0 -5 49 -9 109 -9 l110
0 25 55 c14 31 35 82 48 115 l23 60 241 0 241 0 44 -115 43 -115 123 0 124 0
-17 33 c-10 17 -100 219 -202 447 -101 228 -198 445 -215 483 l-30 67 -109 0
-109 0 -14 -34z m145 -256 c7 -19 42 -100 77 -179 35 -79 63 -145 63 -147 0
-2 -72 -4 -160 -4 -88 0 -160 4 -160 9 0 5 24 66 54 137 112 267 101 251 126
184z"/>
<path d="M10085 6073 c-33 -2 -63 -10 -67 -16 -3 -7 -56 -81 -116 -164 l-110
-152 -27 42 c-15 23 -66 97 -113 165 l-86 122 -133 0 -133 0 88 -122 c49 -68
127 -176 175 -240 48 -65 87 -123 87 -129 0 -6 -20 -36 -43 -67 -24 -31 -88
-120 -142 -197 -54 -77 -120 -168 -147 -202 l-48 -63 129 0 129 0 128 180 c70
99 130 180 133 180 5 -1 38 -47 198 -279 l52 -76 130 -5 c72 -3 131 -1 131 3
0 4 -17 31 -39 60 -59 81 -304 425 -320 451 -14 22 -9 30 79 152 51 71 133
182 182 247 l89 117 -73 -2 c-40 -1 -100 -3 -133 -5z"/>
<path d="M8400 5560 l0 -510 399 0 c354 0 400 2 405 16 3 9 6 51 6 95 l0 79
-301 0 c-270 0 -301 2 -295 16 3 9 6 63 6 120 l0 104 255 0 255 0 0 90 0 90
-254 0 -254 0 -7 75 c-4 41 -4 90 -1 110 l7 35 284 0 285 0 0 95 0 95 -395 0
-395 0 0 -510z"/>
<path d="M10413 5958 c4 -62 7 -292 7 -510 l0 -398 110 0 110 0 0 154 0 154
168 4 c137 4 177 9 226 27 97 35 162 93 204 181 23 48 27 68 27 155 0 89 -3
105 -27 150 -47 89 -130 151 -243 181 -36 10 -127 14 -319 14 l-269 0 6 -112z
m552 -104 c47 -25 85 -84 85 -134 0 -57 -38 -121 -89 -147 -40 -21 -58 -23
-183 -23 l-138 0 0 166 0 166 143 -4 c120 -2 148 -6 182 -24z"/>
<path d="M11440 5558 l0 -513 177 2 c98 2 269 3 381 3 l202 0 0 95 0 95 -270
0 -270 0 0 415 0 415 -110 0 -110 0 0 -512z"/>
<path d="M13590 5560 l0 -510 110 0 110 0 0 165 0 166 97 -3 97 -3 119 -162
119 -163 124 0 c68 0 124 3 124 6 0 7 -204 288 -232 320 -27 30 -23 38 34 64
69 31 132 97 157 166 26 67 28 180 5 247 -19 56 -81 129 -137 161 -84 49 -142
56 -446 56 l-281 0 0 -510z m545 309 c22 -6 56 -28 77 -49 35 -34 38 -43 38
-91 0 -72 -26 -114 -88 -142 -40 -18 -70 -22 -200 -25 l-153 -4 3 161 3 161
140 0 c77 0 158 -5 180 -11z"/>
<path d="M14661 5560 l-2 -510 411 0 410 0 0 95 0 95 -300 0 -301 0 3 118 3
117 255 5 255 5 3 88 3 87 -261 0 -260 0 0 110 0 110 290 0 290 0 0 95 0 95
-399 0 -399 0 -1 -510z"/>
<path d="M15670 5561 l0 -511 110 0 110 0 0 165 0 165 98 0 97 -1 106 -147
c59 -81 113 -157 120 -169 13 -22 20 -23 141 -23 71 0 128 4 128 9 0 5 -58 89
-130 187 l-130 179 54 27 c66 33 118 85 148 146 31 64 37 190 13 263 -25 74
-108 157 -190 190 -58 23 -71 24 -367 27 l-308 3 0 -510z m584 293 c69 -36 96
-124 60 -200 -32 -68 -119 -94 -316 -94 l-108 0 0 161 0 161 163 -4 c140 -3
167 -6 201 -24z"/>
</g>
</svg>
